<svg xmlns="http://www.w3.org/2000/svg" viewBox="0 0 176.5 17.12"><title>asset_NIPPON_AKANE</title><g id="レイヤー_2" data-name="レイヤー 2"><g id="デザイン"><path d="M69.11,0a8.58,8.58,0,0,1,2.44,1.9A10,10,0,0,1,74,8.58a9.9,9.9,0,0,1-2.49,6.64h0a8.43,8.43,0,0,1-2.47,1.9h8.45V0Z"/><polygon points="102.13 13.03 100.71 17.12 109.4 17.12 107.98 13.03 102.13 13.03"/><polygon points="112.54 17.12 115.31 17.12 115.31 0 106.39 0 112.54 17.12"/><polygon points="107.11 10.53 105.04 4.59 102.99 10.53 107.11 10.53"/><path d="M59.57,15.22a9.85,9.85,0,0,1-2.42-6.64A10,10,0,0,1,59.6,1.9,8.56,8.56,0,0,1,62.07,0H51.79a4.71,4.71,0,0,1,3.45,4.83c0,3.2-2.65,5.35-6.6,5.35h-.92v6.94H62A8.62,8.62,0,0,1,59.57,15.22Z"/><path d="M65.59,2.05c-3,0-5.33,2.85-5.33,6.5s2.34,6.61,5.33,6.61,5.3-3,5.3-6.61S68.56,2.05,65.59,2.05Z"/><rect width="5.79" height="17.12"/><polygon points="8.65 17.12 14.97 17.12 8.65 5.81 8.65 17.12"/><polygon points="15.22 0 8.72 0 15.22 12.09 15.22 0"/><rect x="18.14" width="5.09" height="17.12"/><path d="M52.21,4.83c0-1.86-1.23-2.69-4-2.69h-.51V7.56h.51C50.87,7.56,52.21,6.64,52.21,4.83Z"/><polygon points="126.93 0 120.79 7.04 127.24 17.12 127.67 17.12 133.8 0 126.93 0"/><path d="M41.9,4.83c0,3.2-2.66,5.35-6.6,5.35h-.92v6.94h10.4V0H38.45A4.71,4.71,0,0,1,41.9,4.83Z"/><path d="M38.87,4.83c0-1.86-1.23-2.69-4-2.69h-.51V7.56h.51C37.53,7.56,38.87,6.64,38.87,4.83Z"/><rect x="26.35" width="5.09" height="17.12"/><polygon points="137.18 10.53 135.11 4.59 133.06 10.53 137.18 10.53"/><polygon points="171.48 0 171.48 2.25 165.24 2.25 165.24 6.77 170.67 6.77 170.67 9.39 165.24 9.39 165.24 14.84 171.88 14.84 171.88 17.12 176.5 17.12 176.5 0 171.48 0"/><polygon points="118.25 9.94 118.25 17.12 123.63 17.12 118.73 9.4 118.25 9.94"/><polygon points="118.25 0 118.25 5.73 123.28 0 118.25 0"/><polygon points="132.2 13.03 130.78 17.12 139.47 17.12 138.05 13.03 132.2 13.03"/><polygon points="157.75 0 157.46 0 157.46 17.12 162.3 17.12 162.3 0 158.99 0 157.75 0"/><polygon points="154.53 0 148.04 0 154.53 12.09 154.53 0"/><polygon points="147.97 17.12 154.29 17.12 147.97 5.81 147.97 17.12"/><polygon points="145.07 0 144.59 0 136.46 0 142.61 17.12 145.1 17.12 145.1 0 145.07 0"/><polygon points="86.96 0 80.46 0 86.96 12.09 86.96 0"/><polygon points="80.39 17.12 86.71 17.12 80.39 5.81 80.39 17.12"/><polygon points="89.88 0 89.88 17.12 97.6 17.12 103.73 0 89.88 0"/></g></g></svg>