<svg xmlns="http://www.w3.org/2000/svg" viewBox="0 0 47.48 55.85">
  <defs>
    <style>
      .cls-1 {
        fill: none;
        stroke: #fff;
        stroke-linecap: round;
        stroke-linejoin: round;
      }
    </style>
  </defs>
  <title>asset_pictogram_糸</title>
  <g id="レイヤー_2" data-name="レイヤー 2">
    <g id="デザイン"><path class="cls-1" d="M43.55,27.93V16.17A6.67,6.67,0,0,0,47,10.05C47,.62,32.31.5,23.74.5S.5.62.5,10.05a6.67,6.67,0,0,0,3.43,6.12V27.93"/><path class="cls-1" d="M43.55,27.93V39.68A6.67,6.67,0,0,1,47,45.81c0,9.42-14.67,9.54-23.24,9.54S.5,55.23.5,45.81a6.67,6.67,0,0,1,3.43-6.13V27.93"/>
    <line class="cls-1" x1="3.93" y1="39.68" x2="43.55" y2="39.68"/>
    <line class="cls-1" x1="3.93" y1="16.17" x2="43.55" y2="16.17"/>
    <line class="cls-1" x1="3.93" y1="20.09" x2="43.55" y2="20.09"/>
    <line class="cls-1" x1="3.93" y1="24.01" x2="43.55" y2="24.01"/>
    <line class="cls-1" x1="3.93" y1="27.93" x2="43.55" y2="27.93"/>
    <line class="cls-1" x1="3.93" y1="31.84" x2="43.55" y2="31.84"/>
    <line class="cls-1" x1="3.93" y1="35.76" x2="43.55" y2="35.76"/>
  </g>
  </g>
</svg>
