<svg xmlns="http://www.w3.org/2000/svg" viewBox="0 0 84.87 80"><defs><style>.cls-1{fill:#97141e;}</style></defs><title>asset_シンボル</title><g id="レイヤー_2" data-name="レイヤー 2"><g id="デザイン"><circle class="cls-1" cx="42.44" cy="7.29" r="7.29" transform="translate(7.27 32.14) rotate(-45)"/><path class="cls-1" d="M84.35,64.37c-.3,0-2.45,0-4.62-.2-3.12-.24-4.17-.5-6.16-1.59-4-2.17-8.89-6.87-13.53-11.89-3.69-4-7.94-7.28-13.46-8.25a24.94,24.94,0,0,0-4.14-.39,25,25,0,0,0-4.15.39c-5.52,1-9.77,4.24-13.46,8.25-4.64,5-9.56,9.72-13.53,11.89-2,1.09-3,1.35-6.16,1.59-2.17.18-4.32.18-4.62.2s-.53.14-.52.36.18.32.52.3c.58,0,10.29.09,17.22-.2,4.12-.17,6.29-1.92,8.64-4.54,2.93,3.18,6.35,5.09,11.79,6.33a73.81,73.81,0,0,1-3.87,7.74A82.81,82.81,0,0,1,42.43,80a84.33,84.33,0,0,1,8.14-5.64,73.81,73.81,0,0,1-3.87-7.74c5.44-1.24,8.86-3.15,11.79-6.33,2.35,2.62,4.52,4.37,8.64,4.54,6.93.29,16.64.17,17.22.2.34,0,.51-.09.52-.3S84.7,64.4,84.35,64.37ZM43.27,60.14H41.6C38,60,33.14,57.78,31.28,54.75h0C35,51,38.56,49.8,42.44,49.8S49.9,51,53.58,54.74h0C51.73,57.78,46.9,60,43.27,60.14Z"/></g></g></svg>