<svg xmlns="http://www.w3.org/2000/svg" viewBox="0 0 56.93 76.78">
  <defs>
    <style>
      .cls-1 {
        fill: none;
        stroke: #fff;
        stroke-linecap: round;
        stroke-linejoin: round;
      }
    </style>
  </defs>
  <title>asset_pictogram_生地</title>
  <g id="レイヤー_2" data-name="レイヤー 2">
    <g id="デザイン"><line class="cls-1" x1="52.54" y1="16.63" x2="4.39" y2="16.63"/><rect class="cls-1" x="4.39" y="16.63" width="48.15" height="59.65"/><path class="cls-1" d="M52.54,16.63c.89,0,1.61-3.61,1.61-8.07S53.43.5,52.54.5H4.39"/><path class="cls-1" d="M4.39,16.63c-.89,0-1.61-3.61-1.61-8.07S3.5.5,4.39.5"/><polyline class="cls-1" points="55.97 10.68 54.15 10.68 54.15 6.44 55.97 6.44"/><path class="cls-1" d="M56,6.44c.26,0,.46.95.46,2.12s-.2,2.12-.46,2.12"/><polyline class="cls-1" points="0.96 10.68 2.78 10.68 2.78 6.44 0.96 6.44"/><path class="cls-1" d="M1,6.44C.71,6.44.5,7.39.5,8.56s.21,2.12.46,2.12"/></g>
  </g>
</svg>
