<svg xmlns="http://www.w3.org/2000/svg" viewBox="0 0 171.66 32.73"><title>asset_日本茜研究所</title><g id="レイヤー_2" data-name="レイヤー 2"><g id="デザイン"><polygon points="44.15 2.95 44.15 9.39 47.84 9.39 47.84 8.19 44.15 2.95"/><polygon points="47.84 0 44.16 0 47.84 5.52 47.84 0"/><polygon points="49.49 0 49.49 9.39 53.8 9.39 57.16 0 49.49 0"/><polygon points="56.28 7.14 55.5 9.39 60.27 9.39 59.49 7.14 56.28 7.14"/><path d="M38,0a4.71,4.71,0,0,1,1.34,1A5.45,5.45,0,0,1,40.7,4.7a5.4,5.4,0,0,1-1.36,3.64h0A4.79,4.79,0,0,1,38,9.39h4.55V0Z"/><polygon points="58.62 0 61.99 9.39 63.51 9.39 63.51 0 58.62 0"/><polygon points="56.75 5.77 59.01 5.77 57.88 2.52 56.75 5.77"/><path d="M32.78,8.34A5.35,5.35,0,0,1,31.44,4.7,5.45,5.45,0,0,1,32.79,1a4.75,4.75,0,0,1,1.35-1H28.51A2.58,2.58,0,0,1,30.4,2.65c0,1.75-1.46,2.93-3.62,2.93h-.5V9.39h7.84A4.57,4.57,0,0,1,32.78,8.34Z"/><rect x="10.04" width="2.81" height="9.39"/><polygon points="8.4 0 4.72 0 8.4 5.52 8.4 0"/><path d="M36.07,1.12c-1.63,0-2.92,1.57-2.92,3.57s1.29,3.62,2.92,3.62S39,6.69,39,4.69,37.7,1.12,36.07,1.12Z"/><rect width="3.09" height="9.39"/><polygon points="4.71 2.95 4.71 9.39 8.4 9.39 8.4 8.19 4.71 2.95"/><path d="M28.74,2.65c0-1-.67-1.48-2.18-1.48h-.28v3h.28C28,4.14,28.74,3.64,28.74,2.65Z"/><polygon points="70.05 9.39 70.28 9.39 73.64 0 69.87 0 66.51 3.86 70.05 9.39"/><path d="M21.2,0a2.58,2.58,0,0,1,1.89,2.65c0,1.75-1.46,2.93-3.62,2.93H19V9.39h5.7V0Z"/><path d="M21.43,2.65c0-1-.68-1.48-2.19-1.48H19v3h.27C20.69,4.14,21.43,3.64,21.43,2.65Z"/><rect x="14.56" width="2.79" height="9.39"/><polygon points="75.1 0 78.47 9.39 79.82 9.39 79.82 0 75.1 0"/><polygon points="85.13 0 81.45 0 85.13 5.52 85.13 0"/><polygon points="81.43 2.95 81.43 9.39 85.13 9.39 85.13 8.19 81.43 2.95"/><polygon points="73.24 5.77 75.5 5.77 74.36 2.52 73.24 5.77"/><polygon points="97.46 0 94.53 0 94.53 1.24 91.11 1.24 91.11 3.71 94.09 3.71 94.09 5.15 91.11 5.15 91.11 8.14 94.75 8.14 94.75 9.39 97.46 9.39 97.46 0"/><polygon points="65.12 5.45 65.12 9.39 68.07 9.39 65.38 5.15 65.12 5.45"/><polygon points="67.88 0 65.12 0 65.12 3.14 67.88 0"/><polygon points="72.76 7.14 71.99 9.39 76.75 9.39 75.97 7.14 72.76 7.14"/><rect x="86.77" width="2.73" height="9.39"/><path d="M16.4,16.53H1.68a1.11,1.11,0,0,0-.82.36,1.15,1.15,0,0,0-.3.86L1.67,30.67a1.12,1.12,0,0,0,.49.83,1.1,1.1,0,0,0,.63.2,1.19,1.19,0,0,0,.32-.05,25.72,25.72,0,0,1,5.93-1,26.09,26.09,0,0,1,5.94,1,1.11,1.11,0,0,0,.95-.15,1.14,1.14,0,0,0,.48-.83l1.11-12.92a1.12,1.12,0,0,0-1.12-1.22ZM14.28,29.15A24.54,24.54,0,0,0,9,28.43a24.64,24.64,0,0,0-5.24.72L2.91,18.78H15.17Z"/><rect x="5.69" y="22.43" width="6.7" height="2.25"/><path d="M43.72,20h3.41V18h-8V15.47h-2V18h-8v2h3.41c-.19,2.62-1.3,5.44-6,8.5l-.83.54,1.08,1.67.83-.55c4.51-2.93,6.62-6,6.9-10.16h2.57v7.1h0v0a17.17,17.17,0,0,0-3.85.62l-.17,0v2.08l.76-.24a15.32,15.32,0,0,1,3.28-.53v2.4h2v-2.4a15.43,15.43,0,0,1,3.28.53l.95.3.59-1.9-.78-.24h0l-.17,0-.32-.09,0,0a18.25,18.25,0,0,0-3.51-.51V20h2.57c.28,4.15,2.39,7.23,6.9,10.16l.83.55,1.08-1.67-.83-.54C45,25.47,43.91,22.65,43.72,20Z"/><path d="M107.65,22.81V18.37h1.61v-2H99.94v2h5.72v4.2h-.1q-.5,0-1,0l-1,0c0-.63.06-1.25.06-1.84v-1h-2v1c0,.68,0,1.37-.08,2.08A13,13,0,0,0,99,23.5l-.07,0v2.14l.81-.32a10.88,10.88,0,0,1,1.58-.48A11.59,11.59,0,0,1,99,30.14l-.62.78,1.55,1.24.62-.77a14.08,14.08,0,0,0,2.84-6.82c.39,0,.78-.05,1.18-.05s.73,0,1.09,0v7.21h2V24.83a10.34,10.34,0,0,1,1.73.51l.81.32V23.52l-.07,0A12.53,12.53,0,0,0,107.65,22.81Z"/><path d="M96.79,21.37H91.65l.12-.4h0a16.85,16.85,0,0,0,.43-2.59h5.66v-2H90.22v1a14.53,14.53,0,0,1-.64,4,19.63,19.63,0,0,1-3.65,6.94l-.63.77,1.54,1.26.63-.77a20.75,20.75,0,0,0,2.32-3.5l.19,2.8h0a1,1,0,0,0,.63.88,1.13,1.13,0,0,0,.36.06.94.94,0,0,0,.67-.27,3.48,3.48,0,0,1,2-.46,3.54,3.54,0,0,1,2,.43h0a1,1,0,0,0,1,.22,1,1,0,0,0,.64-.86l.43-6.44h0l.08-1.06ZM91.87,27.3l-.27-3.94h4.13l-.27,3.94a7.78,7.78,0,0,0-3.59,0Z"/><path d="M58.64,23.2H65a9.45,9.45,0,0,1-.06,1.41H60.16a.91.91,0,0,0-.64.27.9.9,0,0,0-.26.64A18.77,18.77,0,0,0,59.9,29c.71,2.95,2.36,2.77,4.64,2.53a29.72,29.72,0,0,1,7.38,0c.6.06,1.15.12,1.65.12,1.43,0,2.47-.47,3-2.65a19.1,19.1,0,0,0,.63-3.46.9.9,0,0,0-.26-.64.87.87,0,0,0-.63-.27H71.56a9.45,9.45,0,0,1-.06-1.41h6.32V21.41H58.64Zm5.73,3.2a4,4,0,0,1-2.8,1.9c-.19-.84-.32-1.46-.39-1.9Zm7.74,3.33a31.48,31.48,0,0,0-7.76,0,13.18,13.18,0,0,1-1.68.12,5.44,5.44,0,0,0,3.64-3.45h3.85a5.43,5.43,0,0,0,3.63,3.45A13.18,13.18,0,0,1,72.11,29.73Zm3.18-3.33c-.08.44-.2,1.06-.4,1.9a4,4,0,0,1-2.79-1.9Zm-5.52-1.79H66.7a11.74,11.74,0,0,0,0-1.41h3A10.09,10.09,0,0,0,69.77,24.61Z"/><polygon points="75.06 15.63 73.24 15.63 72.95 17.2 69.37 17.2 69.37 18.98 72.63 18.98 72.35 20.5 74.16 20.5 74.44 18.98 77.82 18.98 77.82 17.2 74.77 17.2 75.06 15.63"/><polygon points="62.3 20.5 64.12 20.5 63.84 18.98 67.09 18.98 67.09 17.2 63.51 17.2 63.22 15.63 61.4 15.63 61.69 17.2 58.64 17.2 58.64 18.98 62.02 18.98 62.3 20.5"/><path d="M134.63,25.59a1,1,0,0,0-1-1h-3.86a11.16,11.16,0,0,0,.17-1.89v-1h-2v1a9,9,0,0,1-.22,1.89h-5.69v2h5c-.9,1.68-2.63,3.31-6,3.64l-1,.09.19,2,1-.1c4.42-.42,6.89-2.85,8-5.61h3.56a7.53,7.53,0,0,0,6.43,5.94l1,.17.34-1.95-1-.18A5.49,5.49,0,0,1,134.63,25.59Z"/><path d="M122.06,21.12l-.42-2.26H125a3.25,3.25,0,0,1-1.52,3l-.9.43.85,1.79.9-.42c1.66-.79,2.55-2.42,2.66-4.83h3.93c.11,2.41,1,4,2.66,4.83l.89.42.86-1.79-.9-.43a3.25,3.25,0,0,1-1.52-3h3.35l-.41,2.26,2,.36.63-3.44a1,1,0,0,0-.21-.81,1,1,0,0,0-.77-.36H130V15.2h-2v1.67h-7.51a1,1,0,0,0-.76.36,1,1,0,0,0-.21.81l.62,3.44Z"/><path d="M170.68,20.43a15.59,15.59,0,0,1-9.34-5.13,1,1,0,0,0-.79-.4h0a1,1,0,0,0-.79.39,15.52,15.52,0,0,1-9.33,5.14l-1,.16.32,2,1-.16a17.88,17.88,0,0,0,3.84-1.07v1.32h11.77V21.26a18.36,18.36,0,0,0,4,1.13l1,.16.33-2Zm-14.63.23a17.61,17.61,0,0,0,4.5-3.27,17.61,17.61,0,0,0,4.5,3.27Z"/><path d="M161.54,24.57h-2a31.75,31.75,0,0,0-8.05,1.13l-1,.26.53,1.91.95-.26a31,31,0,0,1,4-.8c-1.15,1.85-2.53,4.15-2.62,4.29a1,1,0,0,0,.13,1.19,1,1,0,0,0,1.17.21,13.84,13.84,0,0,1,5.75-1,14.07,14.07,0,0,1,5.75,1,1,1,0,0,0,.45.1,1,1,0,0,0,.85-1.5c-.08-.14-1.48-2.46-2.64-4.32a30.71,30.71,0,0,1,4.2.83l1,.26.52-1.91-1-.26A31.75,31.75,0,0,0,161.54,24.57Zm2.91,5.3a20.05,20.05,0,0,0-8,0c.68-1.13,1.49-2.43,2-3.28.71,0,1.38,0,2,0s1.21,0,1.84,0C163,27.43,163.76,28.74,164.45,29.87Z"/></g></g></svg>