<svg xmlns="http://www.w3.org/2000/svg" viewBox="0 0 47.48 55.85"><title>アセット 1</title><g id="レイヤー_2" data-name="レイヤー 2"><g id="デザイン"><path d="M43.55,28.43a.5.5,0,0,1-.5-.5V16.17a.49.49,0,0,1,.29-.45,6.15,6.15,0,0,0,3.14-5.67c0-9-14.79-9-22.74-9S1,1,1,10.05a6.15,6.15,0,0,0,3.14,5.67.49.49,0,0,1,.29.45V27.93a.5.5,0,0,1-1,0V16.47A7.21,7.21,0,0,1,0,10.05C0,0,15.44,0,23.74,0S47.48,0,47.48,10.05a7.21,7.21,0,0,1-3.43,6.42V27.93A.5.5,0,0,1,43.55,28.43Z"/><path d="M23.74,55.85c-8.3,0-23.74,0-23.74-10a7.21,7.21,0,0,1,3.43-6.43V27.93a.5.5,0,0,1,1,0V39.68a.48.48,0,0,1-.29.45A6.17,6.17,0,0,0,1,45.81c0,9,14.79,9,22.74,9s22.74,0,22.74-9a6.17,6.17,0,0,0-3.14-5.68.48.48,0,0,1-.29-.45V27.93a.5.5,0,1,1,1,0V39.38a7.21,7.21,0,0,1,3.43,6.43C47.48,55.85,32,55.85,23.74,55.85Z"/><path d="M43.55,40.18H3.93a.5.5,0,0,1-.5-.5.5.5,0,0,1,.5-.5H43.55a.5.5,0,0,1,.5.5A.5.5,0,0,1,43.55,40.18Z"/><path d="M43.55,16.67H3.93a.5.5,0,0,1,0-1H43.55a.5.5,0,0,1,0,1Z"/><path d="M43.55,20.59H3.93a.5.5,0,0,1-.5-.5.5.5,0,0,1,.5-.5H43.55a.5.5,0,0,1,.5.5A.5.5,0,0,1,43.55,20.59Z"/><path d="M43.55,24.51H3.93a.5.5,0,0,1-.5-.5.5.5,0,0,1,.5-.5H43.55a.5.5,0,0,1,.5.5A.5.5,0,0,1,43.55,24.51Z"/><path d="M43.55,28.43H3.93a.5.5,0,0,1-.5-.5.5.5,0,0,1,.5-.5H43.55a.5.5,0,0,1,.5.5A.5.5,0,0,1,43.55,28.43Z"/><path d="M43.55,32.34H3.93a.5.5,0,0,1-.5-.5.5.5,0,0,1,.5-.5H43.55a.5.5,0,0,1,.5.5A.5.5,0,0,1,43.55,32.34Z"/><path d="M43.55,36.26H3.93a.5.5,0,0,1-.5-.5.5.5,0,0,1,.5-.5H43.55a.5.5,0,0,1,.5.5A.5.5,0,0,1,43.55,36.26Z"/></g></g></svg>